<svg width="45" height="32" viewBox="0 0 45 32" fill="none" xmlns="http://www.w3.org/2000/svg">
<path d="M6.6375 4.63749C6.6375 2.19337 8.62184 0.212494 11.0625 0.212494H39.825C42.2657 0.212494 44.25 2.19337 44.25 4.63749V20.125C44.25 22.5657 42.2657 24.55 39.825 24.55H11.0625C8.62184 24.55 6.6375 22.5657 6.6375 20.125V4.63749ZM11.0625 20.125H15.4875C15.4875 17.6843 13.5032 15.7 11.0625 15.7V20.125ZM11.0625 4.63749V9.06249C13.5032 9.06249 15.4875 7.07816 15.4875 4.63749H11.0625ZM39.825 15.7C37.3843 15.7 35.4 17.6843 35.4 20.125H39.825V15.7ZM35.4 4.63749C35.4 7.07816 37.3843 9.06249 39.825 9.06249V4.63749H35.4ZM25.4438 6.84999C22.3877 6.84999 19.9125 9.32523 19.9125 12.3812C19.9125 15.4373 22.3877 17.9125 25.4438 17.9125C28.4998 17.9125 30.975 15.4373 30.975 12.3812C30.975 9.32523 28.4998 6.84999 25.4438 6.84999ZM3.31875 22.8906C3.31875 25.6424 5.54784 27.8687 8.29688 27.8687H35.9531C36.8727 27.8687 37.6125 28.6085 37.6125 29.5281C37.6125 30.4477 36.8727 31.1875 35.9531 31.1875H8.29688C3.71493 31.1875 0 27.4746 0 22.8906V6.29687C0 5.3773 0.743262 4.63749 1.65938 4.63749C2.57549 4.63749 3.31875 5.3773 3.31875 6.29687V22.8906Z" fill="#00AB6D"/>
</svg>
